{"title":"Home Alone.I.{{HINDI}}DVDRip.aaaevilacharya","uid":5824213,"size":615541821,"categoryP":"video","categoryS":"movies","magnet":"?xt=urn:btih:a4475f6ca163784a7fef20e86e72ba16357f6110&amp;dn=Home+Alone.I.%7B%7BHINDI%7D%7DDVDRip.aaaevilacharya&amp;tr=udp%3A%2F%2Ftracker.openbittorrent.com%3A80&amp;tr=udp%3A%2F%2Fopen.demonii.com%3A1337&amp;tr=udp%3A%2F%2Ftracker.coppersurfer.tk%3A6969&amp;tr=udp%3A%2F%2Fexodus.desync.com%3A6969","seeders":0,"leechers":1,"uploader":"achaevil","files":2,"time":1284193676,"description":"General\nComplete name                    : Home Alone 1\nFormat                           : AVI\nFormat/Info                      : Audio Video Interleave\nFile size                        : 587 MiB\nDuration                         : 1h 35mn\nOverall bit rate                 : 860 Kbps\nWriting library                  : MPlayer\n\nVideo\nID                               : 0\nFormat                           : MPEG-4 Visual\nFormat profile                   : Simple@L1\nFormat settings, BVOP            : No\nFormat settings, QPel            : No\nFormat settings, GMC             : No warppoints\nFormat settings, Matrix          : Default (H.263)\nCodec ID                         : DX50\nCodec ID/Hint                    : DivX 5\nDuration                         : 1h 35mn\nBit rate                         : 736 Kbps\nWidth                            : 630 pixels\nHeight                           : 310 pixels\nDisplay aspect ratio             : 2.032\nFrame rate                       : 25.000 fps\nColor space                      : YUV\nChroma subsampling               : 4:2:0\nBit depth                        : 8 bits\nScan type                        : Interlaced\nScan order                       : Top Field First\nBits/(Pixel*Frame)               : 0.151\nStream size                      : 502 MiB (86%)\nWriting library                  : Lavc52.30.1\n\nAudio ::HINDI\nID                               : 1\nFormat                           : MPEG Audio\nFormat version                   : Version 1\nFormat profile                   : Layer 3\nMode                             : Joint stereo\nMode extension                   : MS Stereo\nCodec ID                         : 55\nCodec ID/Hint                    : MP3\nDuration                         : 1h 35mn\nBit rate mode                    : Constant\nBit rate                         : 112 Kbps\nChannel(s)                       : 2 channels\nSampling rate                    : 44.1 KHz\nStream size                      : 76.4 MiB (13%)\nAlignment                        : Aligned on interleaves\nInterleave, duration             : 26 ms (0.65 video frame)\nInterleave, preload duration     : 809 ms\n\n","torrent":{"xt":"urn:btih:a4475f6ca163784a7fef20e86e72ba16357f6110","amp;dn":"Home+Alone.I.%7B%7BHINDI%7D%7DDVDRip.aaaevilacharya","amp;tr":["udp%3A%2F%2Ftracker.openbittorrent.com%3A80","udp%3A%2F%2Fopen.demonii.com%3A1337","udp%3A%2F%2Ftracker.coppersurfer.tk%3A6969","udp%3A%2F%2Fexodus.desync.com%3A6969"],"infoHash":"a4475f6ca163784a7fef20e86e72ba16357f6110","infoHashBuffer":{"type":"Buffer","data":[164,71,95,108,161,99,120,74,127,239,32,232,110,114,186,22,53,127,97,16]},"announce":[],"urlList":[]}}